{"accessors" : [{"bufferView" : 0, "byteOffset" : 0, "componentType" : 5123, "count" : 1722, "type" : "SCALAR", "max" : [1437], "min" : [0]}, {"bufferView" : 1, "byteOffset" : 0, "componentType" : 5126, "count" : 1438, "type" : "VEC3", "max" : [3.5739309787750244, 11.191943168640137, 2.9778079986572266], "min" : [-0.31438198685646057, 9.230152130126953, -0.9105049967765808], "name" : "POSITION"}, {"bufferView" : 1, "byteOffset" : 12, "componentType" : 5126, "count" : 1438, "type" : "VEC2", "max" : [0.8467239737510681, -0.39574798941612244], "min" : [0.7753480076789856, -0.47966301441192627], "name" : "TEXCOORD_0"}, {"bufferView" : 0, "byteOffset" : 3444, "componentType" : 5123, "count" : 1722, "type" : "SCALAR", "max" : [1437], "min" : [0]}, {"bufferView" : 2, "byteOffset" : 0, "componentType" : 5126, "count" : 1438, "type" : "VEC3", "max" : [3.5739309787750244, 9.265426635742188, 2.9778079986572266], "min" : [-0.31438300013542175, 7.303630828857422, -0.910506010055542], "name" : "POSITION"}, {"bufferView" : 2, "byteOffset" : 12, "componentType" : 5126, "count" : 1438, "type" : "VEC2", "max" : [0.9737979769706726, -0.3992510139942169], "min" : [0.9024230241775513, -0.48316600918769836], "name" : "TEXCOORD_0"}, {"bufferView" : 0, "byteOffset" : 6888, "componentType" : 5123, "count" : 9024, "type" : "SCALAR", "max" : [6399], "min" : [0]}, {"bufferView" : 3, "byteOffset" : 0, "componentType" : 5126, "count" : 6400, "type" : "VEC3", "max" : [19.77170181274414, 14.469868659973145, 6.592947006225586], "min" : [-19.767969131469727, -11.285805702209473, -9.376111030578613], "name" : "POSITION"}, {"bufferView" : 3, "byteOffset" : 12, "componentType" : 5126, "count" : 6400, "type" : "VEC2", "max" : [0.9794690012931824, -0.5268139839172363], "min" : [0.1227630004286766, -0.9793739914894104], "name" : "TEXCOORD_0"}, {"bufferView" : 0, "byteOffset" : 24936, "componentType" : 5123, "count" : 2400, "type" : "SCALAR", "max" : [1699], "min" : [0]}, {"bufferView" : 4, "byteOffset" : 0, "componentType" : 5126, "count" : 1700, "type" : "VEC3", "max" : [1.3505549430847168, 6.948616981506348, 6.145590782165527], "min" : [-1.4167619943618774, 4.318843841552734, -0.3397350013256073], "name" : "POSITION"}, {"bufferView" : 4, "byteOffset" : 12, "componentType" : 5126, "count" : 1700, "type" : "VEC2", "max" : [0.11022800207138062, -0.8910250067710876], "min" : [0.024814000353217125, -0.9751729965209961], "name" : "TEXCOORD_0"}, {"bufferView" : 0, "byteOffset" : 29736, "componentType" : 5123, "count" : 6336, "type" : "SCALAR", "max" : [4503], "min" : [0]}, {"bufferView" : 5, "byteOffset" : 0, "componentType" : 5126, "count" : 4504, "type" : "VEC3", "max" : [9.814986228942871, -8.401942253112793, 5.783322811126709], "min" : [0.34781599044799805, -14.621498107910156, -6.110383987426758], "name" : "POSITION"}, {"bufferView" : 5, "byteOffset" : 12, "componentType" : 5126, "count" : 4504, "type" : "VEC2", "max" : [0.47279199957847595, -0.02795499935746193], "min" : [0.28064700961112976, -0.2297549992799759], "name" : "TEXCOORD_0"}, {"bufferView" : 0, "byteOffset" : 42408, "componentType" : 5123, "count" : 6336, "type" : "SCALAR", "max" : [4503], "min" : [0]}, {"bufferView" : 6, "byteOffset" : 0, "componentType" : 5126, "count" : 4504, "type" : "VEC3", "max" : [-0.34411799907684326, -8.402000427246094, 5.783339023590088], "min" : [-9.811287879943848, -14.62155532836914, -6.110367774963379], "name" : "POSITION"}, {"bufferView" : 6, "byteOffset" : 12, "componentType" : 5126, "count" : 4504, "type" : "VEC2", "max" : [0.22585299611091614, -0.02812100015580654], "min" : [0.0336650013923645, -0.22989599406719208], "name" : "TEXCOORD_0"}, {"bufferView" : 0, "byteOffset" : 55080, "componentType" : 5123, "count" : 2112, "type" : "SCALAR", "max" : [1495], "min" : [0]}, {"bufferView" : 7, "byteOffset" : 0, "componentType" : 5126, "count" : 1496, "type" : "VEC3", "max" : [2.563754081726074, 8.169303894042969, 7.00522518157959], "min" : [-2.560020923614502, 6.3296051025390625, 1.960407018661499], "name" : "POSITION"}, {"bufferView" : 7, "byteOffset" : 12, "componentType" : 5126, "count" : 1496, "type" : "VEC2", "max" : [0.227182999253273, -0.3232420086860657], "min" : [0.04300599917769432, -0.45378899574279785], "name" : "TEXCOORD_0"}, {"bufferView" : 0, "byteOffset" : 59304, "componentType" : 5123, "count" : 2112, "type" : "SCALAR", "max" : [1495], "min" : [0]}, {"bufferView" : 8, "byteOffset" : 0, "componentType" : 5126, "count" : 1496, "type" : "VEC3", "max" : [2.563754081726074, 6.740860939025879, 6.7140889167785645], "min" : [-2.560020923614502, 4.87617301940918, 2.0356431007385254], "name" : "POSITION"}, {"bufferView" : 8, "byteOffset" : 12, "componentType" : 5126, "count" : 1496, "type" : "VEC2", "max" : [0.4677189886569977, -0.3295089900493622], "min" : [0.2835420072078705, -0.46005600690841675], "name" : "TEXCOORD_0"}, {"bufferView" : 0, "byteOffset" : 63528, "componentType" : 5123, "count" : 2880, "type" : "SCALAR", "max" : [2402], "min" : [0]}, {"bufferView" : 9, "byteOffset" : 0, "componentType" : 5126, "count" : 2403, "type" : "VEC3", "max" : [0.11069999635219574, 11.021018981933594, 2.8425049781799316], "min" : [-3.445194959640503, 7.474507808685303, -0.7395809888839722], "name" : "POSITION"}, {"bufferView" : 9, "byteOffset" : 12, "componentType" : 5126, "count" : 2403, "type" : "VEC2", "max" : [0.7217010259628296, -0.02548299916088581], "min" : [0.5303679704666138, -0.3259910047054291], "name" : "TEXCOORD_0"}, {"bufferView" : 0, "byteOffset" : 69288, "componentType" : 5123, "count" : 2880, "type" : "SCALAR", "max" : [2402], "min" : [0]}, {"bufferView" : 10, "byteOffset" : 0, "componentType" : 5126, "count" : 2403, "type" : "VEC3", "max" : [3.488715887069702, 11.02101993560791, 2.8425049781799316], "min" : [-0.06717900186777115, 7.474508762359619, -0.7395809888839722], "name" : "POSITION"}, {"bufferView" : 10, "byteOffset" : 12, "componentType" : 5126, "count" : 2403, "type" : "VEC2", "max" : [0.9773079752922058, -0.03149700164794922], "min" : [0.7859749794006348, -0.3320060074329376], "name" : "TEXCOORD_0"}, {"bufferView" : 0, "byteOffset" : 75048, "componentType" : 5123, "count" : 1722, "type" : "SCALAR", "max" : [1437], "min" : [0]}, {"bufferView" : 11, "byteOffset" : 0, "componentType" : 5126, "count" : 1438, "type" : "VEC3", "max" : [0.2769089937210083, 11.191941261291504, 2.97780704498291], "min" : [-3.6114039421081543, 9.230151176452637, -0.9105049967765808], "name" : "POSITION"}, {"bufferView" : 11, "byteOffset" : 12, "componentType" : 5126, "count" : 1438, "type" : "VEC2", "max" : [0.6011840105056763, -0.3904860019683838], "min" : [0.5298089981079102, -0.47440001368522644], "name" : "TEXCOORD_0"}, {"bufferView" : 0, "byteOffset" : 78492, "componentType" : 5123, "count" : 1722, "type" : "SCALAR", "max" : [1437], "min" : [0]}, {"bufferView" : 12, "byteOffset" : 0, "componentType" : 5126, "count" : 1438, "type" : "VEC3", "max" : [0.2769080102443695, 9.265425682067871, 2.9778079986572266], "min" : [-3.6114048957824707, 7.303630828857422, -0.9105049967765808], "name" : "POSITION"}, {"bufferView" : 12, "byteOffset" : 12, "componentType" : 5126, "count" : 1438, "type" : "VEC2", "max" : [0.7232459783554077, -0.3936139941215515], "min" : [0.6518700122833252, -0.47752898931503296], "name" : "TEXCOORD_0"}], "asset" : {"generator" : "Aspose.3D 23.2", "version" : "2.0"}, "buffers" : [{"uri" : "data:application/octet-stream;base64,", "byteLength" : 901348}], "bufferViews" : [{"buffer" : 0, "byteOffset" : 0, "byteLength" : 81936, "target" : 34963}, {"buffer" : 0, "byteOffset" : 81940, "byteLength" : 34440, "byteStride" : 20, "target" : 34962}, {"buffer" : 0, "byteOffset" : 116384, "byteLength" : 34440, "byteStride" : 20, "target" : 34962}, {"buffer" : 0, "byteOffset" : 150828, "byteLength" : 180480, "byteStride" : 20, "target" : 34962}, {"buffer" : 0, "byteOffset" : 331312, "byteLength" : 48000, "byteStride" : 20, "target" : 34962}, {"buffer" : 0, "byteOffset" : 379316, "byteLength" : 126720, "byteStride" : 20, "target" : 34962}, {"buffer" : 0, "byteOffset" : 506040, "byteLength" : 126720, "byteStride" : 20, "target" : 34962}, {"buffer" : 0, "byteOffset" : 632764, "byteLength" : 42240, "byteStride" : 20, "target" : 34962}, {"buffer" : 0, "byteOffset" : 675008, "byteLength" : 42240, "byteStride" : 20, "target" : 34962}, {"buffer" : 0, "byteOffset" : 717252, "byteLength" : 57600, "byteStride" : 20, "target" : 34962}, {"buffer" : 0, "byteOffset" : 774856, "byteLength" : 57600, "byteStride" : 20, "target" : 34962}, {"buffer" : 0, "byteOffset" : 832460, "byteLength" : 34440, "byteStride" : 20, "target" : 34962}, {"buffer" : 0, "byteOffset" : 866904, "byteLength" : 34440, "byteStride" : 20, "target" : 34962}], "images" : [{"uri" : "data:image/png;base64,"}], "materials" : [{"name" : "Linux_Penguin", "pbrMetallicRoughness" : {"baseColorFactor" : [1, 1, 1, 1], "baseColorTexture" : {"index" : 0, "texCoord" : 0}, "metallicFactor" : 0, "roughnessFactor" : 0}, "emissiveFactor" : [0, 0, 0], "alphaMode" : "OPAQUE", "doubleSided" : false}, {"name" : "Linux_Penguin", "pbrMetallicRoughness" : {"baseColorFactor" : [1, 1, 1, 1], "baseColorTexture" : {"index" : 0, "texCoord" : 0}, "metallicFactor" : 0, "roughnessFactor" : 0}, "emissiveFactor" : [0, 0, 0], "alphaMode" : "OPAQUE", "doubleSided" : false}, {"name" : "Linux_Penguin", "pbrMetallicRoughness" : {"baseColorFactor" : [1, 1, 1, 1], "baseColorTexture" : {"index" : 0, "texCoord" : 0}, "metallicFactor" : 0, "roughnessFactor" : 0}, "emissiveFactor" : [0, 0, 0], "alphaMode" : "OPAQUE", "doubleSided" : false}, {"name" : "Linux_Penguin", "pbrMetallicRoughness" : {"baseColorFactor" : [1, 1, 1, 1], "baseColorTexture" : {"index" : 0, "texCoord" : 0}, "metallicFactor" : 0, "roughnessFactor" : 0}, "emissiveFactor" : [0, 0, 0], "alphaMode" : "OPAQUE", "doubleSided" : false}, {"name" : "Linux_Penguin", "pbrMetallicRoughness" : {"baseColorFactor" : [1, 1, 1, 1], "baseColorTexture" : {"index" : 0, "texCoord" : 0}, "metallicFactor" : 0, "roughnessFactor" : 0}, "emissiveFactor" : [0, 0, 0], "alphaMode" : "OPAQUE", "doubleSided" : false}, {"name" : "Linux_Penguin", "pbrMetallicRoughness" : {"baseColorFactor" : [1, 1, 1, 1], "baseColorTexture" : {"index" : 0, "texCoord" : 0}, "metallicFactor" : 0, "roughnessFactor" : 0}, "emissiveFactor" : [0, 0, 0], "alphaMode" : "OPAQUE", "doubleSided" : false}, {"name" : "Linux_Penguin", "pbrMetallicRoughness" : {"baseColorFactor" : [1, 1, 1, 1], "baseColorTexture" : {"index" : 0, "texCoord" : 0}, "metallicFactor" : 0, "roughnessFactor" : 0}, "emissiveFactor" : [0, 0, 0], "alphaMode" : "OPAQUE", "doubleSided" : false}, {"name" : "Linux_Penguin", "pbrMetallicRoughness" : {"baseColorFactor" : [1, 1, 1, 1], "baseColorTexture" : {"index" : 0, "texCoord" : 0}, "metallicFactor" : 0, "roughnessFactor" : 0}, "emissiveFactor" : [0, 0, 0], "alphaMode" : "OPAQUE", "doubleSided" : false}, {"name" : "Linux_Penguin", "pbrMetallicRoughness" : {"baseColorFactor" : [1, 1, 1, 1], "baseColorTexture" : {"index" : 0, "texCoord" : 0}, "metallicFactor" : 0, "roughnessFactor" : 0}, "emissiveFactor" : [0, 0, 0], "alphaMode" : "OPAQUE", "doubleSided" : false}, {"name" : "Linux_Penguin", "pbrMetallicRoughness" : {"baseColorFactor" : [1, 1, 1, 1], "baseColorTexture" : {"index" : 0, "texCoord" : 0}, "metallicFactor" : 0, "roughnessFactor" : 0}, "emissiveFactor" : [0, 0, 0], "alphaMode" : "OPAQUE", "doubleSided" : false}, {"name" : "Linux_Penguin", "pbrMetallicRoughness" : {"baseColorFactor" : [1, 1, 1, 1], "baseColorTexture" : {"index" : 0, "texCoord" : 0}, "metallicFactor" : 0, "roughnessFactor" : 0}, "emissiveFactor" : [0, 0, 0], "alphaMode" : "OPAQUE", "doubleSided" : false}, {"name" : "Linux_Penguin", "pbrMetallicRoughness" : {"baseColorFactor" : [1, 1, 1, 1], "baseColorTexture" : {"index" : 0, "texCoord" : 0}, "metallicFactor" : 0, "roughnessFactor" : 0}, "emissiveFactor" : [0, 0, 0], "alphaMode" : "OPAQUE", "doubleSided" : false}], "meshes" : [{"primitives" : [{"attributes" : {"POSITION" : 1, "TEXCOORD_0" : 2}, "indices" : 0, "material" : 0, "mode" : 4}], "name" : ""}, {"primitives" : [{"attributes" : {"POSITION" : 4, "TEXCOORD_0" : 5}, "indices" : 3, "material" : 1, "mode" : 4}], "name" : ""}, {"primitives" : [{"attributes" : {"POSITION" : 7, "TEXCOORD_0" : 8}, "indices" : 6, "material" : 2, "mode" : 4}], "name" : ""}, {"primitives" : [{"attributes" : {"POSITION" : 10, "TEXCOORD_0" : 11}, "indices" : 9, "material" : 3, "mode" : 4}], "name" : ""}, {"primitives" : [{"attributes" : {"POSITION" : 13, "TEXCOORD_0" : 14}, "indices" : 12, "material" : 4, "mode" : 4}], "name" : ""}, {"primitives" : [{"attributes" : {"POSITION" : 16, "TEXCOORD_0" : 17}, "indices" : 15, "material" : 5, "mode" : 4}], "name" : ""}, {"primitives" : [{"attributes" : {"POSITION" : 19, "TEXCOORD_0" : 20}, "indices" : 18, "material" : 6, "mode" : 4}], "name" : ""}, {"primitives" : [{"attributes" : {"POSITION" : 22, "TEXCOORD_0" : 23}, "indices" : 21, "material" : 7, "mode" : 4}], "name" : ""}, {"primitives" : [{"attributes" : {"POSITION" : 25, "TEXCOORD_0" : 26}, "indices" : 24, "material" : 8, "mode" : 4}], "name" : ""}, {"primitives" : [{"attributes" : {"POSITION" : 28, "TEXCOORD_0" : 29}, "indices" : 27, "material" : 9, "mode" : 4}], "name" : ""}, {"primitives" : [{"attributes" : {"POSITION" : 31, "TEXCOORD_0" : 32}, "indices" : 30, "material" : 10, "mode" : 4}], "name" : ""}, {"primitives" : [{"attributes" : {"POSITION" : 34, "TEXCOORD_0" : 35}, "indices" : 33, "material" : 11, "mode" : 4}], "name" : ""}], "nodes" : [{"mesh" : 0, "name" : "Linux_Penguin_(Left_Upper_Eyelid)"}, {"mesh" : 1, "name" : "Linux_Penguin_(Left_Lower_Eyelid)_Sphere.003"}, {"mesh" : 2, "name" : "Linux_Penguin_(Torso)"}, {"mesh" : 3, "name" : "Linux_Penguin_(Tongue)"}, {"mesh" : 4, "name" : "Linux_Penguin_(Left_Leg)"}, {"mesh" : 5, "name" : "Linux_Penguin_(Right_Leg)"}, {"mesh" : 6, "name" : "Linux_Penguin_(Upper_Beak)"}, {"mesh" : 7, "name" : "Linux_Penguin_(Lower_Beak)"}, {"mesh" : 8, "name" : "Linux_Penguin_(Right_Eye)"}, {"mesh" : 9, "name" : "Linux_Penguin_(Left_Eye)"}, {"mesh" : 10, "name" : "Linux_Penguin_(Right_Upper_Eyelid)"}, {"mesh" : 11, "name" : "Linux_Penguin_(Right_Lower_Eyelid)"}], "samplers" : [{"magFilter" : 9729, "minFilter" : 9729, "wrapS" : 10497, "wrapT" : 10497}], "scene" : 0, "scenes" : [{"nodes" : [0, 1, 2, 3, 4, 5, 6, 7, 8, 9, 10, 11]}], "textures" : [{"sampler" : 0, "source" : 0, "name" : ""}]}